<?xml version="1.0" encoding="utf-8"?>
<!-- Generator: Adobe Illustrator 18.0.0, SVG Export Plug-In . SVG Version: 6.00 Build 0)  -->
<!DOCTYPE svg PUBLIC "-//W3C//DTD SVG 1.1//EN" "http://www.w3.org/Graphics/SVG/1.1/DTD/svg11.dtd">
<svg version="1.1" id="Layer_1" xmlns="http://www.w3.org/2000/svg" xmlns:xlink="http://www.w3.org/1999/xlink" x="0px" y="0px"
	 viewBox="0 0 1400 1000" enable-background="new 0 0 1400 1000" xml:space="preserve">
<g>
	<g>
		<path fill="#1FA0DD" d="M599.7,508.7h-9.1v17.7h-9.2v-47.1h18.2c9.7,0,15.5,6.7,15.5,14.7C615.2,502,609.4,508.7,599.7,508.7z
			 M599.2,487.5h-8.6v12.9h8.6c4.2,0,6.8-2.6,6.8-6.4C606,490.2,603.4,487.5,599.2,487.5z"/>
		<path fill="#1FA0DD" d="M620.9,526.4v-47.1h9.2v47.1H620.9z"/>
		<path fill="#1FA0DD" d="M654.9,526.8c-5,0-9.3-1.7-12.7-5.2c-2.1-2-3.3-4.4-3.8-7.1c-0.5-2.6-0.8-6.5-0.8-11.7s0.3-9.1,0.8-11.7
			c0.5-2.7,1.8-5,3.8-7.1c3.4-3.4,7.7-5.2,12.7-5.2c9.1,0,15.7,5.3,17.3,14.9h-9.3c-1-4-3.5-6.7-7.9-6.7c-2.5,0-4.5,0.8-5.9,2.4
			c-1.9,2.1-2.3,4.2-2.3,13.3s0.4,11.2,2.3,13.3c1.4,1.7,3.4,2.4,5.9,2.4c4.4,0,6.9-2.6,7.9-6.7h9.3
			C670.6,521.5,663.9,526.8,654.9,526.8z"/>
		<path fill="#1FA0DD" d="M705.5,526.4L693.4,505l-6.1,7.3v14.2h-9.2v-47.1h9.2v20.5l16.6-20.5h11.2L699.5,498l16.7,28.4H705.5z"/>
		<path fill="#FE973E" d="M763.5,526.4v-27.4l-9,17.9h-6.2l-9.1-17.9v27.4h-9.2v-47.1h9.1l12.3,25.5l12.2-25.5h9.1v47.1H763.5z"/>
		<path fill="#FE973E" d="M799.7,507.1v19.3h-9.1v-19.3l-14.2-27.8h10l8.8,19l8.7-19h10L799.7,507.1z"/>
		<path fill="#FE973E" d="M845.5,487.5v38.9h-9.2v-38.9H824v-8.2h33.8v8.2H845.5z"/>
		<path fill="#FE973E" d="M890.5,521.6c-3.3,3.3-7.3,5.2-12.7,5.2c-5.4,0-9.5-1.9-12.8-5.2c-4.8-4.8-4.6-10.6-4.6-18.8
			s-0.1-14,4.6-18.8c3.3-3.3,7.4-5.2,12.8-5.2c5.4,0,9.4,1.9,12.7,5.2c4.8,4.8,4.7,10.6,4.7,18.8S895.2,516.9,890.5,521.6z
			 M883.7,489.6c-1.3-1.5-3.4-2.5-5.9-2.5c-2.5,0-4.6,1-6,2.5c-1.8,2-2.2,4.2-2.2,13.2s0.5,11.2,2.2,13.2c1.3,1.5,3.4,2.5,6,2.5
			c2.5,0,4.6-1,5.9-2.5c1.8-2,2.3-4.2,2.3-13.2S885.4,491.6,883.7,489.6z"/>
		<path fill="#FE973E" d="M919.2,526.8c-9.7,0-17.3-6.5-17.3-16.5v-30.9h9.2v30.6c0,5.4,3.2,8.7,8.1,8.7s8.2-3.2,8.2-8.7v-30.6h9.1
			v30.9C936.5,520.2,928.8,526.8,919.2,526.8z"/>
		<path fill="#FE973E" d="M969.7,526.4l-9.2-18.8h-6.6v18.8h-9.2v-47.1h18.4c9.6,0,15.3,6.5,15.3,14.4c0,6.6-4,10.7-8.6,12.4
			l10.5,20.3H969.7z M962.6,487.5h-8.7v12.4h8.7c4,0,6.7-2.6,6.7-6.2S966.6,487.5,962.6,487.5z"/>
		<path fill="#FE973E" d="M999,526.8c-7.1,0-12.6-1.5-17.2-6.2l6-6c3,3,7,4,11.4,4c5.4,0,8.3-2.1,8.3-5.8c0-1.7-0.5-3-1.5-4
			c-0.9-0.9-2-1.3-4.2-1.7l-5.7-0.8c-4-0.6-7-1.9-9.1-3.9c-2.2-2.2-3.4-5.3-3.4-9.3c0-8.4,6.2-14.3,16.4-14.3
			c6.5,0,11.2,1.6,15.2,5.5l-5.8,5.8c-3-2.8-6.5-3.2-9.7-3.2c-4.9,0-7.3,2.7-7.3,6c0,1.2,0.4,2.4,1.4,3.4c0.9,0.9,2.4,1.6,4.4,1.9
			l5.6,0.8c4.3,0.6,7,1.8,9,3.6c2.5,2.4,3.6,5.8,3.6,10C1016.4,521.6,1008.8,526.8,999,526.8z"/>
	</g>
	<g>
		<path fill="#1FA0DD" d="M598.2,552.4h-2.4l-3.7-12.7l-3.7,12.7h-2.4l-4.7-18.1h2.9l3.2,12.9l3.6-12.9h2.2l3.6,12.9l3.2-12.9h2.9
			L598.2,552.4z"/>
		<path fill="#1FA0DD" d="M615,552.4v-7.9c0-1-0.2-1.7-0.7-2.1c-0.5-0.4-1.1-0.7-1.8-0.7c-0.7,0-1.3,0.2-1.9,0.7
			c-0.5,0.5-0.8,1.2-0.8,2.1v7.9h-2.6v-18.1h2.6v6.5c0.4-0.5,0.9-0.9,1.5-1.1c0.6-0.2,1.2-0.4,1.8-0.4c0.7,0,1.3,0.1,1.9,0.3
			c0.6,0.2,1,0.6,1.4,1c0.4,0.4,0.7,0.9,0.9,1.5c0.2,0.6,0.3,1.2,0.3,1.9v8.3H615z"/>
		<path fill="#1FA0DD" d="M625.4,546.7c0,1.1,0.3,2,0.8,2.7c0.6,0.6,1.4,1,2.4,1c0.7,0,1.3-0.1,1.8-0.3c0.4-0.2,0.9-0.5,1.4-1
			l1.7,1.5c-0.3,0.3-0.7,0.6-1,0.9c-0.3,0.2-0.7,0.4-1.1,0.6c-0.4,0.2-0.8,0.3-1.2,0.4c-0.4,0.1-1,0.1-1.5,0.1
			c-0.8,0-1.6-0.1-2.3-0.3c-0.7-0.2-1.3-0.6-1.8-1.1c-0.5-0.5-0.9-1.2-1.2-2c-0.3-0.8-0.5-1.9-0.5-3.1c0-2.1,0.5-3.7,1.5-4.9
			c1-1.1,2.3-1.7,4-1.7c0.9,0,1.6,0.2,2.3,0.5c0.7,0.3,1.2,0.7,1.7,1.3c0.5,0.5,0.8,1.2,1.1,2c0.2,0.8,0.4,1.6,0.4,2.5v1.1H625.4z
			 M631.2,544.9c0-0.4,0-0.7-0.1-1c0-0.2-0.1-0.5-0.3-0.8c-0.2-0.5-0.5-0.9-1-1.2c-0.4-0.3-1-0.4-1.6-0.4c-0.6,0-1.1,0.1-1.6,0.4
			c-0.4,0.3-0.8,0.7-1,1.2c-0.1,0.3-0.2,0.6-0.3,0.8c0,0.2-0.1,0.6-0.1,1H631.2z"/>
		<path fill="#1FA0DD" d="M646.2,542.6c-0.3-0.3-0.6-0.5-0.9-0.6c-0.3-0.1-0.6-0.2-1.1-0.2c-0.7,0-1.3,0.3-1.8,0.8
			c-0.5,0.5-0.7,1.2-0.7,2.1v7.8h-2.6v-12.9h2.5v1.4c0.3-0.5,0.8-0.8,1.4-1.1c0.6-0.3,1.3-0.4,2-0.4c0.6,0,1.2,0.1,1.7,0.3
			c0.5,0.2,1,0.5,1.4,0.9L646.2,542.6z"/>
		<path fill="#1FA0DD" d="M653.3,546.7c0,1.1,0.3,2,0.8,2.7c0.6,0.6,1.4,1,2.4,1c0.7,0,1.3-0.1,1.8-0.3s0.9-0.5,1.4-1l1.7,1.5
			c-0.3,0.3-0.7,0.6-1,0.9c-0.3,0.2-0.7,0.4-1.1,0.6c-0.4,0.2-0.8,0.3-1.2,0.4c-0.4,0.1-1,0.1-1.5,0.1c-0.8,0-1.6-0.1-2.3-0.3
			c-0.7-0.2-1.3-0.6-1.8-1.1s-0.9-1.2-1.2-2c-0.3-0.8-0.5-1.9-0.5-3.1c0-2.1,0.5-3.7,1.5-4.9c1-1.1,2.3-1.7,4-1.7
			c0.9,0,1.6,0.2,2.3,0.5c0.7,0.3,1.2,0.7,1.7,1.3c0.5,0.5,0.8,1.2,1.1,2c0.2,0.8,0.4,1.6,0.4,2.5v1.1H653.3z M659.1,544.9
			c0-0.4,0-0.7-0.1-1c0-0.2-0.1-0.5-0.3-0.8c-0.2-0.5-0.5-0.9-1-1.2c-0.4-0.3-1-0.4-1.6-0.4c-0.6,0-1.1,0.1-1.6,0.4
			c-0.4,0.3-0.8,0.7-1,1.2c-0.1,0.3-0.2,0.6-0.3,0.8c0,0.2-0.1,0.6-0.1,1H659.1z"/>
		<path fill="#1FA0DD" d="M688.1,543.3c0,0.7,0,1.3,0,2c0,0.7-0.1,1.3-0.2,2c-0.1,0.6-0.3,1.3-0.5,1.9c-0.3,0.6-0.6,1.1-1.1,1.6
			c-0.6,0.6-1.3,1-2.1,1.3c-0.8,0.3-1.7,0.4-2.6,0.4h-6.4v-18.1h6.4c1,0,1.8,0.1,2.6,0.4c0.8,0.3,1.5,0.7,2.1,1.3
			c0.5,0.5,0.9,1,1.1,1.6c0.3,0.6,0.4,1.2,0.5,1.8c0.1,0.6,0.2,1.2,0.2,1.9C688.1,541.9,688.1,542.6,688.1,543.3z M685.4,543.3
			c0-1.3,0-2.3-0.1-3.2c-0.1-0.9-0.4-1.5-0.8-2.1c-0.7-0.8-1.8-1.2-3.1-1.2H678V550h3.3c1.3,0,2.3-0.4,3.1-1.2
			c0.5-0.5,0.8-1.3,0.8-2.2C685.3,545.6,685.4,544.5,685.4,543.3z"/>
		<path fill="#1FA0DD" d="M700.9,542.6c-0.3-0.3-0.6-0.5-0.9-0.6c-0.3-0.1-0.6-0.2-1.1-0.2c-0.7,0-1.3,0.3-1.8,0.8
			c-0.5,0.5-0.7,1.2-0.7,2.1v7.8h-2.6v-12.9h2.5v1.4c0.3-0.5,0.8-0.8,1.4-1.1c0.6-0.3,1.3-0.4,2-0.4c0.6,0,1.2,0.1,1.7,0.3
			c0.5,0.2,1,0.5,1.4,0.9L700.9,542.6z"/>
		<path fill="#1FA0DD" d="M708,546.7c0,1.1,0.3,2,0.8,2.7c0.6,0.6,1.4,1,2.4,1c0.7,0,1.3-0.1,1.8-0.3s0.9-0.5,1.4-1l1.7,1.5
			c-0.3,0.3-0.7,0.6-1,0.9c-0.3,0.2-0.7,0.4-1.1,0.6c-0.4,0.2-0.8,0.3-1.2,0.4c-0.4,0.1-1,0.1-1.5,0.1c-0.8,0-1.6-0.1-2.3-0.3
			c-0.7-0.2-1.3-0.6-1.8-1.1s-0.9-1.2-1.2-2c-0.3-0.8-0.5-1.9-0.5-3.1c0-2.1,0.5-3.7,1.5-4.9c1-1.1,2.3-1.7,4-1.7
			c0.9,0,1.6,0.2,2.3,0.5c0.7,0.3,1.2,0.7,1.7,1.3c0.5,0.5,0.8,1.2,1.1,2c0.2,0.8,0.4,1.6,0.4,2.5v1.1H708z M713.8,544.9
			c0-0.4,0-0.7-0.1-1c0-0.2-0.1-0.5-0.3-0.8c-0.2-0.5-0.5-0.9-1-1.2c-0.4-0.3-1-0.4-1.6-0.4c-0.6,0-1.1,0.1-1.6,0.4
			c-0.4,0.3-0.8,0.7-1,1.2c-0.1,0.3-0.2,0.6-0.3,0.8c0,0.2-0.1,0.6-0.1,1H713.8z"/>
		<path fill="#1FA0DD" d="M728.6,552.4v-1.2c-0.5,0.5-1,0.8-1.5,1c-0.5,0.2-1.2,0.3-2,0.3c-0.8,0-1.5-0.1-2-0.3
			c-0.6-0.2-1-0.5-1.4-0.9c-0.7-0.7-1-1.6-1-2.8c0-1.1,0.4-2,1.1-2.7c0.7-0.7,1.9-1,3.3-1h3.4V544c0-0.8-0.2-1.4-0.6-1.8
			c-0.4-0.4-1.2-0.6-2.2-0.6c-0.7,0-1.3,0.1-1.7,0.3c-0.4,0.2-0.8,0.5-1.1,1l-1.7-1.6c0.6-0.7,1.3-1.2,2-1.5
			c0.7-0.3,1.6-0.4,2.7-0.4c3.5,0,5.3,1.5,5.3,4.4v8.6H728.6z M728.5,546.7h-3c-0.8,0-1.3,0.2-1.7,0.5c-0.4,0.3-0.6,0.8-0.6,1.4
			c0,0.6,0.2,1,0.6,1.4c0.4,0.3,1,0.5,1.8,0.5c0.5,0,0.9,0,1.3-0.1c0.4-0.1,0.8-0.3,1.1-0.6c0.4-0.4,0.6-1,0.6-1.9V546.7z"/>
		<path fill="#1FA0DD" d="M752.7,552.4v-7.9c0-1-0.3-1.7-0.7-2.2c-0.5-0.5-1.1-0.7-1.8-0.7c-0.4,0-0.7,0.1-1,0.2
			c-0.3,0.1-0.6,0.3-0.9,0.5c-0.2,0.2-0.4,0.5-0.6,0.9c-0.1,0.3-0.2,0.7-0.2,1.2v8h-2.6v-7.9c0-1-0.3-1.7-0.7-2.2
			c-0.5-0.5-1.1-0.7-1.8-0.7c-0.7,0-1.4,0.2-1.9,0.7c-0.5,0.5-0.8,1.2-0.8,2.2v7.9H737v-12.9h2.5v1.3c0.4-0.5,1-0.8,1.6-1.1
			c0.6-0.2,1.2-0.4,1.9-0.4c1.6,0,2.8,0.6,3.7,1.9c1-1.3,2.4-1.9,4-1.9c0.7,0,1.3,0.1,1.8,0.3c0.6,0.2,1,0.5,1.4,0.9
			c0.5,0.5,0.8,1,1.1,1.6c0.2,0.6,0.3,1.3,0.3,2v8.2H752.7z"/>
		<path fill="#1FA0DD" d="M770.7,548.5c0,0.7-0.1,1.3-0.4,1.8c-0.3,0.5-0.6,0.9-1.1,1.3c-0.5,0.3-1,0.6-1.7,0.8
			c-0.7,0.2-1.4,0.3-2.1,0.3c-1.1,0-2-0.1-2.9-0.4c-0.9-0.2-1.7-0.7-2.5-1.5l1.7-1.7c0.5,0.5,1.1,0.9,1.8,1.1s1.3,0.3,1.9,0.3
			c0.8,0,1.5-0.1,2-0.4c0.5-0.3,0.8-0.7,0.8-1.3c0-0.4-0.1-0.8-0.4-1.1c-0.3-0.3-0.7-0.4-1.3-0.5l-2.1-0.2c-1.2-0.1-2.2-0.4-2.8-1
			c-0.7-0.6-1-1.4-1-2.6c0-0.6,0.1-1.2,0.4-1.7c0.3-0.5,0.6-0.9,1-1.2c0.4-0.3,1-0.6,1.5-0.8c0.6-0.2,1.2-0.3,1.9-0.3
			c1,0,1.9,0.1,2.7,0.3c0.8,0.2,1.5,0.6,2.1,1.1l-1.6,1.7c-0.4-0.3-0.9-0.6-1.4-0.7c-0.6-0.1-1.1-0.2-1.7-0.2
			c-0.8,0-1.4,0.2-1.8,0.5c-0.4,0.3-0.6,0.7-0.6,1.2c0,0.4,0.1,0.7,0.4,1c0.2,0.3,0.7,0.4,1.4,0.5l2,0.2c1.2,0.1,2.2,0.4,2.8,1
			C770.4,546.5,770.7,547.3,770.7,548.5z"/>
		<path fill="#1FA0DD" d="M797.3,552.4v-12.1l-4.2,8.8h-2l-4.3-8.8v12.1h-2.8v-18.1h2.8l5.3,11.3l5.2-11.3h2.8v18.1H797.3z"/>
		<path fill="#1FA0DD" d="M808.3,546.7c0,1.1,0.3,2,0.8,2.7c0.6,0.6,1.4,1,2.4,1c0.7,0,1.3-0.1,1.8-0.3s0.9-0.5,1.4-1l1.7,1.5
			c-0.3,0.3-0.7,0.6-1,0.9c-0.3,0.2-0.7,0.4-1.1,0.6c-0.4,0.2-0.8,0.3-1.2,0.4c-0.4,0.1-1,0.1-1.5,0.1c-0.8,0-1.6-0.1-2.3-0.3
			c-0.7-0.2-1.3-0.6-1.8-1.1s-0.9-1.2-1.2-2c-0.3-0.8-0.5-1.9-0.5-3.1c0-2.1,0.5-3.7,1.5-4.9c1-1.1,2.3-1.7,4-1.7
			c0.9,0,1.6,0.2,2.3,0.5c0.7,0.3,1.2,0.7,1.7,1.3c0.5,0.5,0.8,1.2,1.1,2c0.2,0.8,0.4,1.6,0.4,2.5v1.1H808.3z M814.1,544.9
			c0-0.4,0-0.7-0.1-1c0-0.2-0.1-0.5-0.3-0.8c-0.2-0.5-0.5-0.9-1-1.2c-0.4-0.3-1-0.4-1.6-0.4c-0.6,0-1.1,0.1-1.6,0.4
			c-0.4,0.3-0.8,0.7-1,1.2c-0.1,0.3-0.2,0.6-0.3,0.8c0,0.2-0.1,0.6-0.1,1H814.1z"/>
		<path fill="#1FA0DD" d="M823.9,546.7c0,1.1,0.3,2,0.8,2.7c0.6,0.6,1.4,1,2.4,1c0.7,0,1.3-0.1,1.8-0.3c0.4-0.2,0.9-0.5,1.4-1
			l1.7,1.5c-0.3,0.3-0.7,0.6-1,0.9c-0.3,0.2-0.7,0.4-1.1,0.6c-0.4,0.2-0.8,0.3-1.2,0.4c-0.4,0.1-1,0.1-1.5,0.1
			c-0.8,0-1.6-0.1-2.3-0.3s-1.3-0.6-1.8-1.1c-0.5-0.5-0.9-1.2-1.2-2c-0.3-0.8-0.5-1.9-0.5-3.1c0-2.1,0.5-3.7,1.5-4.9
			c1-1.1,2.3-1.7,4-1.7c0.9,0,1.6,0.2,2.3,0.5c0.7,0.3,1.2,0.7,1.7,1.3c0.5,0.5,0.8,1.2,1.1,2c0.2,0.8,0.4,1.6,0.4,2.5v1.1H823.9z
			 M829.7,544.9c0-0.4,0-0.7-0.1-1c0-0.2-0.1-0.5-0.3-0.8c-0.2-0.5-0.5-0.9-1-1.2c-0.4-0.3-1-0.4-1.6-0.4c-0.6,0-1.1,0.1-1.6,0.4
			c-0.4,0.3-0.8,0.7-1,1.2c-0.1,0.3-0.2,0.6-0.3,0.8c0,0.2-0.1,0.6-0.1,1H829.7z"/>
		<path fill="#1FA0DD" d="M841.4,552.4c-0.6,0-1.1-0.1-1.6-0.3c-0.4-0.2-0.8-0.5-1.1-0.8c-0.3-0.3-0.5-0.7-0.6-1.1
			c-0.1-0.4-0.2-0.9-0.2-1.3v-7.1h-1.5v-2h1.5v-3.9h2.6v3.9h2.5v2h-2.5v7c0,0.5,0.1,0.8,0.3,1.1c0.2,0.3,0.6,0.4,1.1,0.4h1.1v2.2
			H841.4z"/>
		<path fill="#1FA0DD" d="M869.3,543.3c0,0.7,0,1.3,0,2c0,0.7-0.1,1.3-0.2,2c-0.1,0.6-0.3,1.3-0.5,1.9c-0.3,0.6-0.6,1.1-1.1,1.6
			c-0.6,0.6-1.3,1-2.1,1.3c-0.8,0.3-1.7,0.4-2.6,0.4h-6.4v-18.1h6.4c1,0,1.8,0.1,2.6,0.4c0.8,0.3,1.5,0.7,2.1,1.3
			c0.5,0.5,0.9,1,1.1,1.6c0.3,0.6,0.4,1.2,0.5,1.8c0.1,0.6,0.2,1.2,0.2,1.9C869.3,541.9,869.3,542.6,869.3,543.3z M866.6,543.3
			c0-1.3,0-2.3-0.1-3.2c-0.1-0.9-0.4-1.5-0.8-2.1c-0.7-0.8-1.8-1.2-3.1-1.2h-3.3V550h3.3c1.3,0,2.3-0.4,3.1-1.2
			c0.5-0.5,0.8-1.3,0.8-2.2C866.5,545.6,866.6,544.5,866.6,543.3z"/>
		<path fill="#1FA0DD" d="M876.9,546.7c0,1.1,0.3,2,0.8,2.7c0.6,0.6,1.4,1,2.4,1c0.7,0,1.3-0.1,1.8-0.3s0.9-0.5,1.4-1l1.7,1.5
			c-0.3,0.3-0.7,0.6-1,0.9c-0.3,0.2-0.7,0.4-1.1,0.6c-0.4,0.2-0.8,0.3-1.2,0.4c-0.4,0.1-1,0.1-1.5,0.1c-0.8,0-1.6-0.1-2.3-0.3
			c-0.7-0.2-1.3-0.6-1.8-1.1c-0.5-0.5-0.9-1.2-1.2-2c-0.3-0.8-0.5-1.9-0.5-3.1c0-2.1,0.5-3.7,1.5-4.9c1-1.1,2.3-1.7,4-1.7
			c0.9,0,1.6,0.2,2.3,0.5c0.7,0.3,1.2,0.7,1.7,1.3c0.5,0.5,0.8,1.2,1.1,2c0.2,0.8,0.4,1.6,0.4,2.5v1.1H876.9z M882.7,544.9
			c0-0.4,0-0.7-0.1-1c0-0.2-0.1-0.5-0.3-0.8c-0.2-0.5-0.5-0.9-1-1.2c-0.4-0.3-1-0.4-1.6-0.4c-0.6,0-1.1,0.1-1.6,0.4
			c-0.4,0.3-0.8,0.7-1,1.2c-0.1,0.3-0.2,0.6-0.3,0.8c0,0.2-0.1,0.6-0.1,1H882.7z"/>
		<path fill="#1FA0DD" d="M900.1,548.5c0,0.7-0.1,1.3-0.4,1.8s-0.6,0.9-1.1,1.3c-0.5,0.3-1,0.6-1.7,0.8c-0.7,0.2-1.4,0.3-2.1,0.3
			c-1,0-2-0.1-2.9-0.4c-0.9-0.2-1.7-0.7-2.5-1.5l1.7-1.7c0.5,0.5,1.1,0.9,1.8,1.1c0.7,0.2,1.3,0.3,1.9,0.3c0.8,0,1.5-0.1,2-0.4
			c0.5-0.3,0.8-0.7,0.8-1.3c0-0.4-0.1-0.8-0.4-1.1c-0.3-0.3-0.7-0.4-1.3-0.5l-2.1-0.2c-1.2-0.1-2.2-0.4-2.8-1c-0.7-0.6-1-1.4-1-2.6
			c0-0.6,0.1-1.2,0.4-1.7c0.3-0.5,0.6-0.9,1-1.2c0.4-0.3,1-0.6,1.5-0.8c0.6-0.2,1.2-0.3,1.9-0.3c1,0,1.9,0.1,2.7,0.3
			c0.8,0.2,1.5,0.6,2.1,1.1l-1.6,1.7c-0.4-0.3-0.9-0.6-1.4-0.7c-0.6-0.1-1.1-0.2-1.7-0.2c-0.8,0-1.4,0.2-1.8,0.5
			c-0.4,0.3-0.6,0.7-0.6,1.2c0,0.4,0.1,0.7,0.4,1c0.2,0.3,0.7,0.4,1.4,0.5l2,0.2c1.2,0.1,2.2,0.4,2.8,1
			C899.8,546.5,900.1,547.3,900.1,548.5z"/>
		<path fill="#1FA0DD" d="M908.7,552.4c-0.6,0-1.1-0.1-1.6-0.3c-0.4-0.2-0.8-0.5-1.1-0.8c-0.3-0.3-0.5-0.7-0.6-1.1
			c-0.1-0.4-0.2-0.9-0.2-1.3v-7.1h-1.5v-2h1.5v-3.9h2.6v3.9h2.5v2h-2.5v7c0,0.5,0.1,0.8,0.3,1.1c0.2,0.3,0.6,0.4,1.1,0.4h1.1v2.2
			H908.7z"/>
		<path fill="#1FA0DD" d="M915.4,537v-2.7h2.7v2.7H915.4z M915.5,552.4v-12.9h2.6v12.9H915.5z"/>
		<path fill="#1FA0DD" d="M932,552.4v-7.9c0-1-0.3-1.7-0.7-2.2c-0.5-0.5-1.1-0.7-1.8-0.7s-1.4,0.2-1.9,0.7c-0.5,0.5-0.8,1.2-0.8,2.2
			v7.9h-2.6v-12.9h2.5v1.3c0.4-0.5,1-0.9,1.6-1.1c0.6-0.2,1.2-0.4,1.9-0.4c0.7,0,1.3,0.1,1.8,0.3c0.5,0.2,1,0.5,1.4,0.9
			c0.5,0.5,0.8,1,1,1.6c0.2,0.6,0.3,1.3,0.3,2v8.2H932z"/>
		<path fill="#1FA0DD" d="M947.4,552.4v-1.2c-0.5,0.5-1,0.8-1.5,1c-0.5,0.2-1.2,0.3-2,0.3c-0.8,0-1.5-0.1-2-0.3
			c-0.6-0.2-1-0.5-1.4-0.9c-0.7-0.7-1-1.6-1-2.8c0-1.1,0.4-2,1.1-2.7c0.7-0.7,1.8-1,3.3-1h3.4V544c0-0.8-0.2-1.4-0.6-1.8
			c-0.4-0.4-1.2-0.6-2.2-0.6c-0.7,0-1.3,0.1-1.7,0.3c-0.4,0.2-0.8,0.5-1.1,1l-1.7-1.6c0.6-0.7,1.3-1.2,2-1.5
			c0.7-0.3,1.6-0.4,2.7-0.4c3.5,0,5.3,1.5,5.3,4.4v8.6H947.4z M947.3,546.7h-3c-0.8,0-1.3,0.2-1.7,0.5c-0.4,0.3-0.6,0.8-0.6,1.4
			c0,0.6,0.2,1,0.6,1.4c0.4,0.3,1,0.5,1.8,0.5c0.5,0,0.9,0,1.3-0.1c0.4-0.1,0.8-0.3,1.1-0.6c0.4-0.4,0.6-1,0.6-1.9V546.7z"/>
		<path fill="#1FA0DD" d="M959.6,552.4c-0.6,0-1.1-0.1-1.6-0.3c-0.4-0.2-0.8-0.5-1.1-0.8c-0.3-0.3-0.5-0.7-0.6-1.1
			c-0.1-0.4-0.2-0.9-0.2-1.3v-7.1h-1.5v-2h1.5v-3.9h2.6v3.9h2.5v2h-2.5v7c0,0.5,0.1,0.8,0.3,1.1c0.2,0.3,0.6,0.4,1.1,0.4h1.1v2.2
			H959.6z"/>
		<path fill="#1FA0DD" d="M966.3,537v-2.7h2.7v2.7H966.3z M966.4,552.4v-12.9h2.6v12.9H966.4z"/>
		<path fill="#1FA0DD" d="M985.1,546c0,1.1-0.1,2.1-0.3,2.9c-0.2,0.8-0.6,1.6-1.2,2.2c-0.4,0.4-1,0.8-1.6,1.1
			c-0.6,0.3-1.4,0.4-2.3,0.4c-0.9,0-1.6-0.1-2.3-0.4c-0.6-0.3-1.2-0.7-1.6-1.1c-0.6-0.6-1-1.4-1.2-2.2c-0.2-0.8-0.3-1.8-0.3-2.9
			c0-1.1,0.1-2,0.3-2.9c0.2-0.8,0.6-1.6,1.2-2.2c0.4-0.4,0.9-0.8,1.6-1.1c0.6-0.3,1.4-0.4,2.3-0.4c0.9,0,1.6,0.1,2.3,0.4
			c0.6,0.3,1.2,0.7,1.6,1.1c0.6,0.6,1,1.4,1.2,2.2C985,543.9,985.1,544.9,985.1,546z M982.6,546c0-0.7-0.1-1.4-0.2-2
			c-0.1-0.6-0.3-1.1-0.7-1.5c-0.5-0.5-1.1-0.7-1.9-0.7c-0.8,0-1.4,0.2-1.9,0.7c-0.4,0.4-0.6,0.9-0.7,1.5s-0.2,1.3-0.2,2
			c0,0.7,0.1,1.4,0.2,2c0.1,0.6,0.3,1.1,0.7,1.5c0.5,0.5,1.1,0.8,1.9,0.8c0.8,0,1.4-0.3,1.9-0.8c0.4-0.4,0.6-0.9,0.7-1.5
			C982.5,547.4,982.6,546.7,982.6,546z"/>
		<path fill="#1FA0DD" d="M998.4,552.4v-7.9c0-1-0.3-1.7-0.7-2.2c-0.5-0.5-1.1-0.7-1.8-0.7s-1.4,0.2-1.9,0.7
			c-0.5,0.5-0.8,1.2-0.8,2.2v7.9h-2.6v-12.9h2.5v1.3c0.4-0.5,1-0.9,1.6-1.1c0.6-0.2,1.2-0.4,1.9-0.4c0.7,0,1.3,0.1,1.8,0.3
			c0.5,0.2,1,0.5,1.4,0.9c0.5,0.5,0.8,1,1,1.6c0.2,0.6,0.3,1.3,0.3,2v8.2H998.4z"/>
		<path fill="#1FA0DD" d="M1016.4,548.5c0,0.7-0.1,1.3-0.4,1.8c-0.3,0.5-0.6,0.9-1.1,1.3c-0.5,0.3-1,0.6-1.7,0.8
			c-0.7,0.2-1.4,0.3-2.1,0.3c-1,0-2-0.1-2.9-0.4c-0.9-0.2-1.7-0.7-2.5-1.5l1.7-1.7c0.5,0.5,1.1,0.9,1.8,1.1c0.7,0.2,1.3,0.3,1.9,0.3
			c0.8,0,1.5-0.1,2-0.4c0.5-0.3,0.8-0.7,0.8-1.3c0-0.4-0.1-0.8-0.4-1.1c-0.3-0.3-0.7-0.4-1.3-0.5l-2.1-0.2c-1.2-0.1-2.2-0.4-2.8-1
			c-0.7-0.6-1-1.4-1-2.6c0-0.6,0.1-1.2,0.4-1.7c0.3-0.5,0.6-0.9,1-1.2c0.4-0.3,1-0.6,1.5-0.8c0.6-0.2,1.2-0.3,1.9-0.3
			c1,0,1.9,0.1,2.7,0.3c0.8,0.2,1.5,0.6,2.1,1.1l-1.6,1.7c-0.4-0.3-0.9-0.6-1.4-0.7c-0.6-0.1-1.1-0.2-1.7-0.2
			c-0.8,0-1.4,0.2-1.8,0.5c-0.4,0.3-0.6,0.7-0.6,1.2c0,0.4,0.1,0.7,0.4,1c0.2,0.3,0.7,0.4,1.4,0.5l2,0.2c1.2,0.1,2.2,0.4,2.8,1
			C1016.1,546.5,1016.4,547.3,1016.4,548.5z"/>
	</g>
	<linearGradient id="SVGID_1_" gradientUnits="userSpaceOnUse" x1="388.3444" y1="490.1693" x2="582.658" y2="490.1693">
		<stop  offset="0" style="stop-color:#1977C1"/>
		<stop  offset="1" style="stop-color:#23C2F4"/>
	</linearGradient>
	<path fill="url(#SVGID_1_)" d="M406.3,538.3l9.3-6c0,0-30.7-42.5,9-88.6c0,0,29.7-34.1,67.7-14.3c0,0,24.7,11,11,32.2
		c0,0-18.8,30.5-50.6,56.3c0,0-53.4,45.7-64.3,51.7c0,0,51.4-18.1,89-40.4c0,0,60.3-40.4,72.4-59.8l4.2,4.6c0,0,0.4-4.4-0.9-7.9
		c0,0,10.4-9,12.6-11.5c0,0,9,6.4,13.5,17.9c0,0-0.2-10.8-4-17.7c0,0,7.3-5.1-1.5-3.7c0,0-0.2,0-0.5-4.6l8.8-9.7l0.7-3.7h-4
		l-9.7,9.9c0,0-1.8-0.4-4.9-1.3c0,0,4.4-6.6-4.4-1.3c0,0-9.7-2.9-17.2-3.3c0,0,16,7.7,19.2,13c0,0-8.6,9.5-11.2,13.3
		c0,0-5.7-1.6-8.8-0.9l5.3,4.2c0,0-23.8,25.2-43.5,37.7c0,0-61.6,44.2-91,50.8c0,0,62.3-42.6,68.5-49.4c0,0,37-25.2,45.9-56.6
		c2.8-9.8-0.7-20.4-8.8-26.6c-11.1-8.6-31.9-17.2-67.4-8.2c0,0-48.8,12.6-56.3,66.9C394.4,481.5,386.9,505.8,406.3,538.3z"/>
	<path fill="#FE973E" d="M459.8,542.3c0,0,82.1-44.2,97.6-63.4c0,0,13.2,44.1-26.9,79c0,0-47.5,39.5-100.4,5.1l11.3-5.8
		c0,0,37.2,22,73.9-2.6c0,0,28.7-21.9,27.4-34.9c0,0,1.1-16.3-40.4,5c-1.3,0.7-2.7,1.3-4.1,1.9L459.8,542.3z"/>
</g>
</svg>
