<?xml version="1.0" standalone="no"?>
<!DOCTYPE svg PUBLIC "-//W3C//DTD SVG 20010904//EN"
 "http://www.w3.org/TR/2001/REC-SVG-20010904/DTD/svg10.dtd">
<svg version="1.0" xmlns="http://www.w3.org/2000/svg"
 width="364.000000pt" height="124.000000pt" viewBox="0 0 364.000000 124.000000"
 preserveAspectRatio="xMidYMid meet">

<g transform="translate(0.000000,124.000000) scale(0.100000,-0.100000)"
fill="#000000" stroke="none">
<path d="M648 1063 c7 -3 16 -2 19 1 4 3 -2 6 -13 5 -11 0 -14 -3 -6 -6z"/>
<path d="M543 1045 c-64 -20 -150 -90 -193 -156 -45 -69 -65 -159 -58 -257 6
-75 39 -162 62 -162 26 0 27 16 4 66 -17 38 -22 68 -22 134 0 77 3 91 34 152
18 37 52 85 74 107 44 43 128 91 157 91 12 0 19 7 19 20 0 23 -16 24 -77 5z"/>
<path d="M658 600 c-14 -21 -34 -29 -22 -7 4 6 -2 4 -14 -7 -12 -10 -19 -23
-15 -29 3 -6 1 -7 -5 -3 -10 6 -120 -79 -177 -137 -19 -19 91 54 147 97 14 12
40 32 57 45 18 13 36 32 42 42 13 25 2 24 -13 -1z"/>
<path d="M590 460 c-25 -16 -50 -30 -56 -30 -5 0 -19 -7 -30 -15 -16 -13 -13
-13 20 1 41 16 116 61 116 69 0 8 -2 7 -50 -25z"/>
<path d="M355 364 c-24 -21 -32 -33 -20 -29 56 19 125 48 122 52 -3 2 -16 -1
-31 -7 -39 -14 -51 -13 -36 5 20 25 7 17 -35 -21z"/>
</g>
</svg>
